<svg xmlns="http://www.w3.org/2000/svg" viewBox="0 0 1092 240">
  <path fill="#FA4000" d="M1014.56 64.687c-1.56-.855-5.5-2.645-6.114-2.489 0 0 6.27-1.092 12.6-7.617a59.676 59.676 0 0 1 2.309 10.648c-2.713.312-7.652-.074-8.8-.542m75.1 75.945c-4.1-5.67-13.6-14.134-14.151-15.613-1.619-1.709-10.9-9.088-15.667-11.34-1.183-.7-4.961-3.337-5.427-3.418.089-.921.318-4.882-.385-5.67.311-.773 0-1.858.311-2.17.7.23 1.079.468 1.545 0a9.168 9.168 0 0 0 2.24-6.064 25.2 25.2 0 0 0 .7-5.581c.939-.156 1.168.149 1.242-.468s.7-3.262.85-4.5c.614-.074 4.4-5.365 5.183-7.067a104.182 104.182 0 0 0 6.869-14.3c.066-.186 1.464-1.932 2.432-3.062s.724-1.9.724-1.9 2.181-2.556 2.4-2.876c.392-.765.547-1.4 1.227-1.858a7 7 0 0 0 1.641-2.72c0-.245.074-.476.074-.929a3.022 3.022 0 0 0-1.168-1.873c.082-.617-.3-2.549-1.619-2.549a2.506 2.506 0 0 0-1.538-2.1c.066-1.323-.473-2.645-1.553-2.333a10.233 10.233 0 0 0-.924.936c-.384-.936-1.094-1.717-1.848-.706a14.6 14.6 0 0 0-2.551 4.971 12.649 12.649 0 0 0-.4 4.585 11.489 11.489 0 0 0-.229 3.418 4.53 4.53 0 0 0-.843 2.638s-5.168 7.2-8.924 12.44c0 0 1.427-7.037 2.041-8.553.3-.788.858-6.443.148-9.014a56.94 56.94 0 0 0-4.162-8.3c-.229-1.479.229-4.964-2.152-6.376-1.168-.542-3.327-1.471-3.874-1.234.163-1.553.384-3.418 1.775-3.656a5.436 5.436 0 0 0 1.626-.55s5.22.505 4.325-2.014c-.326-.9-.939-2.162-.237-2.244a1.5 1.5 0 0 0 1.323-1.174 7.178 7.178 0 0 0-1.02-1.7c.481-.476.71-.349 1.486-.817.525-.624.066-2.214-.392-2.683-.385-.468-.385-.929.229-1.085 0 0 1.168-.394 1.427-1.085.54-1.412-1.153-2.37-1.153-2.37-1.079-.936-2.514-1.821-2.6-2.371-.1-.773.5-.981.7-1.939a9.313 9.313 0 0 0-1.39-6.755c-5.78-11.301-19.611-4.664-19.611-4.664-2.174 1.4-4.8 3.032-5.723 6.911s-1.161 5.752 0 8.308a44.62 44.62 0 0 0 4.259 6.985c1.006 1.3 1.59 2.274.481 5.135a4.288 4.288 0 0 1-1.945 2.006c-1.73.765-4.776 1.947-5.8 2.259a6.187 6.187 0 0 0-3.179 2.794s-11.719 1.033-14.669 11.028c0 0-13.523 6.517-16.465 12.113-1.56 2.987-4.325 4.83-4.473 7.067a13.269 13.269 0 0 0 .614 3.4 1.61 1.61 0 0 0 1.353 1 21.257 21.257 0 0 1 4.059.728 29.2 29.2 0 0 0 7.342 1.092c4.244.156 12.118 0 13.434.23 1.627.156 6.188.156 6.262.468-.392 2.1-2.24 9.237-2.24 11.258 0 0-1.6 7.513 4.1 9.861a31.468 31.468 0 0 0-4.17 5.744c-1.109 2.252-2.322 7.453-.939 14.52-1.93 4.421-2.854 7.372-2.773 8.687 0 0-11.327 10.53-16.229 25.711-.4 1.256-3.2 4.184-6.107 6.985 0 0-10 2.222-13.974 19.5-.9 3.886-8.813 16.148-10.358 17.4-1.39 2.021-3.66 5.7-4.177 5.514 0 0-1.131-.513-1.53.557 0 0-5.042-.468-7.652 2.475 0 0-2.344-.215-2.248 1 .052.632 1.087 7.379 1.863 8.546.54 1.494 2.543 7.5 2.218 11.072a2.589 2.589 0 0 0 .3 2.467l2.728 5.105c.318.394 3.467 6.51 4.8 6.918 1.612.371 2.773-.245 3.157-1.025a4.659 4.659 0 0 0-.384-4.652 3.68 3.68 0 0 1-.858-3.582 14.155 14.155 0 0 0 .614-4.808 27.036 27.036 0 0 1 1.4-4.808c.244-.327 1.235.3 1.471-.164a6.531 6.531 0 0 0 .311-1.709 8.7 8.7 0 0 0 0-3.106c.074-.847-.769-1.4 1.087-2.333.695-.78.695-2.088 0-1.94 1.006-1.553 6.026-10.641 7.645-12.031 2.388-2.645 11.438-12.12 12.591-14.215a85.911 85.911 0 0 0 8.118-10.01 22.313 22.313 0 0 1 6.329-6.837c7.77-2.3 6.8-8.471 6.8-8.471 1.235-1 6.329-5.187 8.185-6.755a40 40 0 0 0 7.5-7.3c1.856-1.546 7.8-8.308 7.8-9.006 2.174.7 12.6 5.053 14.994 5.365a79.338 79.338 0 0 0 10.04 2.244c2.64.855 7.187 2.727 7.342 3.582-1.848 1.167-7.489 5.113-8.576 8.308-1.856 3.1-4.488 10.79-5.8 12.031-1.3 2.014-7.416 11.028-8.806 11.964-1.4 1.62-5.567 5.358-7.327 5.514-1.871.461-2.255-.476-2.558.847-.784.23-2.4.7-2.329 1.471-1.235 0-5.131 1.055-5.36 2.757a6.972 6.972 0 0 0 .665 4.54s3.386 4.756 3.844 7.609c1.013 2.958 1.782 4.265 1.782 5.908a24 24 0 0 0 3.09 5.276c.865 1.092 7.956 8.078 10.965 8.078 2.869-.765 2.558-2.259 2.787-2.943a9.536 9.536 0 0 0-1.774-4.043c-.858-1.011-1.3-3.567-1.3-4.577a9.973 9.973 0 0 0-1.25-2.482 1.794 1.794 0 0 0 .54-1.8 4.677 4.677 0 0 0-.54-1.241 4.879 4.879 0 0 0 1.168-2.868c-.155-.646-.932-2.489.222-3.812.237-1.241.237-2.1-.466-2.475a29.013 29.013 0 0 1 9.515-12.967c3.4-2.645 8.495-6.837 9.574-7.847s9.05-7.535 9.811-9.319c2.092-1.546 4.48-3.262 5.708-4.429a15.226 15.226 0 0 0 3.179-5.038c1.708-2.1 3.312-4.667 3.394-5.826s1-1.4-2.151-7.223"/>
  <g fill="#FA4000">
    <path d="M145.097 69.421q-4.214-16.831-12.229-26.893a57.971 57.971 0 0 0-21.234-16.237 64.886 64.886 0 0 0-27.762-6.16q-24 0-41.263 15.471-12.6 11.28-19.053 33.819Zm.118 44.163 17.663 9.333q-8.706 17.065-20.1 27.569a79.635 79.635 0 0 1-25.641 15.962q-14.251 5.462-32.25 5.469-39.9 0-62.386-26.224-22.5-26.217-22.5-59.285a87.647 87.647 0 0 1 19.038-55.45Q43.159 0 83.642 0q41.677 0 66.567 31.745 17.678 22.416 17.981 55.963H21.463q.6 28.468 18.166 46.682t43.407 18.221a69.787 69.787 0 0 0 24.258-4.34 64 64 0 0 0 20.051-11.511q8.251-7.178 17.87-23.177" />
    <path d="M207.058 4.106h21.045v29.341Q240.68 16.606 255.958 8.3A68.494 68.494 0 0 1 289.21.006q18.276 0 32.435 9.319a55.6 55.6 0 0 1 20.9 25.109q6.743 15.795 6.735 49.171v84.2h-21.047V89.722q0-28.29-2.344-37.764-3.671-16.241-14-24.448t-26.927-8.2a51.5 51.5 0 0 0-34.054 12.648 59.324 59.324 0 0 0-19.818 31.28q-2.994 12.194-2.987 44.534v60.034h-21.045Z" />
    <path d="M472.7 20.338a63.069 63.069 0 0 0-55.813 32.882 66.524 66.524 0 0 0 .081 66.062 64.289 64.289 0 0 0 23.681 24.545 61.654 61.654 0 0 0 31.9 8.783 65.21 65.21 0 0 0 32.576-8.709 60.8 60.8 0 0 0 23.681-23.571q8.3-14.858 8.288-33.477 0-28.379-18.6-47.447T472.7 20.338m83.813-16.232v163.7h-20.635v-28.133q-13.2 16.107-29.618 24.173a80.288 80.288 0 0 1-35.9 8.078q-34.646 0-59.148-25.176-24.523-25.169-24.519-61.242 0-35.312 24.739-60.414T470.956.006a77.168 77.168 0 0 1 36.354 8.517q16.269 8.527 28.568 25.667V4.106Z" />
    <path d="m761.481 38.299-16.62 10.389Q723.368 19.93 686.186 19.93q-29.721 0-49.351 19.209t-19.629 46.689a66.594 66.594 0 0 0 9.035 33.618 63.5 63.5 0 0 0 24.783 24.46 71.748 71.748 0 0 0 35.311 8.7q35.832 0 58.527-28.751l16.619 10.981a78.557 78.557 0 0 1-31.362 27.37q-19.685 9.709-44.841 9.72-38.627 0-64.072-24.649-25.463-24.645-25.456-59.961a85.877 85.877 0 0 1 11.9-44.111 83.886 83.886 0 0 1 32.709-31.775Q661.167.006 686.926.006a98.688 98.688 0 0 1 31.215 4.98 86.7 86.7 0 0 1 25.522 12.96 70.435 70.435 0 0 1 17.818 20.353" />
    <path d="M878.942 20.546q-26 0-44.686 19.395-18.654 19.406-18.669 46.927a67.135 67.135 0 0 0 8.517 33.09 60.633 60.633 0 0 0 23.008 23.69 64.858 64.858 0 0 0 63.65 0 60.584 60.584 0 0 0 23.008-23.69 67.063 67.063 0 0 0 8.525-33.09q0-27.521-18.757-46.927-18.754-19.384-44.6-19.395m.078-20.54q37.574 0 62.275 27.346 22.446 24.947 22.462 59.054 0 34.264-23.726 59.887t-61.011 25.63q-37.418 0-61.159-25.63-23.72-25.614-23.72-59.887 0-33.952 22.447-58.9 24.71-27.5 62.432-27.5" />
  </g>
  <g fill="#FA4000">
    <path d="M16.143 202.007h18.772l-.621 3.381h-15.06l-2.492 13.525h14.506l-.614 3.374H16.123l-3.144 17.054H9.268Z" />
    <path d="M50.275 202.005h3.512l-1.176 6.361h-3.512Zm-1.8 9.735h3.512l-5.087 27.6h-3.516Z" />
    <path d="M68.551 211.735h3.512l-.732 4h.1c2.381-3.886 5.6-4.5 8.6-4.7l-.68 3.738a10.231 10.231 0 0 0-6.432 2.727 10.973 10.973 0 0 0-2.957 5.7l-2.986 16.135h-3.5Z" />
    <path d="M92.566 231.172c-.865 5.246 2.625 5.648 3.874 5.648a5.755 5.755 0 0 0 6.033-4.942c.7-3.782-2.558-4.644-4.458-5.5-2.64-.959-6.824-2.475-5.863-7.669a9.391 9.391 0 0 1 9.234-7.668c4.126 0 6.95 3.18 6.1 7.52h-3.512c.37-3.381-1.76-4.34-3.32-4.34a5.116 5.116 0 0 0-4.924 4.132c-.54 2.928 2.188 3.938 4.074 4.592 3.009 1.055 7.3 2.824 6.255 8.523a9.875 9.875 0 0 1-10.2 8.531c-3.815 0-8.1-2.631-6.8-8.828Z" />
    <path d="M126.821 214.925h-5.767l.584-3.18h5.767l1.8-9.735h3.512l-1.789 9.735h6.573l-.584 3.18h-6.58l-4.5 24.411h-3.511Z" />
    <path d="M189.133 236.618c8.584 0 17.249-7.015 18.89-15.888 1.6-8.731-4.236-15.992-13.02-15.992-8.384 0-17.175 6.859-18.883 16.14-1.575 8.523 4.37 15.739 13.013 15.739m6.49-35.256c10.44 0 18.151 8.323 16.118 19.313s-12.85 19.325-23.238 19.325c-10.543 0-18.033-8.627-16.1-19.12 2.156-11.748 13.33-19.518 23.22-19.518" />
    <path d="M228.827 211.735h3.512l-.651 3.537h.1a12.076 12.076 0 0 1 9.216-4.237c3.364 0 6.011.862 8.059 3.389 1.686 2.021 2.462 5.194 1.627 9.735l-2.802 15.176h-3.512l2.8-15.182c.651-3.589.015-6.108-1.22-7.572a7.322 7.322 0 0 0-5.538-2.37 10.407 10.407 0 0 0-6.41 2.37 12.305 12.305 0 0 0-3.956 7.572l-2.792 15.182h-3.512Z" />
    <path d="M271.274 202.007h3.519l-6.883 37.334h-3.512Z" />
    <path d="M291.347 202.005h3.519l-1.176 6.361h-3.512Zm-1.789 9.735h3.512l-5.087 27.6h-3.5Z" />
    <path d="M309.631 211.735h3.5l-.651 3.537h.111a12.045 12.045 0 0 1 9.2-4.243c3.372 0 6.018.862 8.066 3.389 1.686 2.021 2.455 5.194 1.619 9.735l-2.785 15.182h-3.512l2.795-15.182c.658-3.589.022-6.108-1.212-7.572a7.342 7.342 0 0 0-5.538-2.37 10.425 10.425 0 0 0-6.418 2.37 12.264 12.264 0 0 0-3.944 7.576l-2.8 15.178h-3.518Z" />
    <path d="M371.773 223.652c.1-6.5-4.628-9.43-9-9.43a13.653 13.653 0 0 0-12.428 9.43Zm-22.011 3.183a8.767 8.767 0 0 0 8.8 9.987 13.036 13.036 0 0 0 11.031-6.51h3.728c-2.928 5.5-8.968 9.69-15.29 9.69-7.682 0-13.153-6.264-11.652-14.431 1.442-7.819 8.928-14.381 16.942-14.536a11.4 11.4 0 0 1 10.935 7.074 13.525 13.525 0 0 1 .5 8.724Z" />
    <path d="M419.867 218.108h4.673c2.913 0 4.6-.156 6.573-1.07a7.576 7.576 0 0 0 3.978-5.239 5.28 5.28 0 0 0-.806-4.087c-1.153-1.665-3.29-2.326-7.1-2.326h-4.975Zm-3.29 17.849h5.227a19 19 0 0 0 7.2-.959 8.679 8.679 0 0 0 5.087-6.354 5.552 5.552 0 0 0-3.209-6.3c-1.619-.713-3.1-.862-7.068-.862h-4.568Zm2.543-33.952h9.338c11.7 0 10.595 8.427 10.314 9.943-.806 4.384-3.948 6.458-5.449 7.52 3.431 1.509 5.272 4.89 4.488 9.177a13.062 13.062 0 0 1-5.863 8.627c-3.5 1.865-6.011 2.125-10.373 2.066h-9.331Z" />
    <path d="M474.534 239.339h-3.312l.784-4.288h-.1a11.549 11.549 0 0 1-9.693 4.949c-5.427 0-7.756-2.631-8.673-4.139-1.516-2.423-1.323-5.952-.776-8.873l2.8-15.248h3.512l-2.785 15.189c-.643 3.485-.3 5.752.621 7.268a6.84 6.84 0 0 0 5.893 2.623 9.221 9.221 0 0 0 6.225-2.222c1.907-1.613 3.5-3.426 4.384-8.271l2.691-14.587h3.519Z" />
    <path d="M494.149 231.172c-.865 5.246 2.617 5.648 3.882 5.648a5.748 5.748 0 0 0 6.026-4.942c.7-3.782-2.551-4.644-4.451-5.5-2.639-.959-6.824-2.475-5.878-7.669a9.42 9.42 0 0 1 9.249-7.669c4.118 0 6.95 3.18 6.1 7.52h-3.519c.37-3.381-1.76-4.34-3.32-4.34a5.122 5.122 0 0 0-4.924 4.132c-.54 2.928 2.188 3.938 4.074 4.592 3.009 1.055 7.312 2.824 6.255 8.523a9.864 9.864 0 0 1-10.2 8.531c-3.815 0-8.1-2.631-6.795-8.828Z" />
    <path d="M527.568 202.005h3.519l-1.176 6.361h-3.512Zm-1.793 9.735h3.512l-5.087 27.6h-3.512Z" />
    <path d="M545.859 211.735h3.5l-.651 3.537h.111a12.049 12.049 0 0 1 9.22-4.237c3.357 0 6.011.862 8.059 3.389 1.686 2.021 2.455 5.194 1.619 9.735l-2.798 15.176H561.4l2.8-15.182c.658-3.589.015-6.108-1.213-7.572a7.346 7.346 0 0 0-5.545-2.37 10.388 10.388 0 0 0-6.4 2.37 12.273 12.273 0 0 0-3.963 7.572l-2.788 15.182h-3.519Z" />
    <path d="M608.001 223.652c.1-6.5-4.636-9.43-9.005-9.43a13.644 13.644 0 0 0-12.421 9.43Zm-22.01 3.18a8.767 8.767 0 0 0 8.8 9.987 13.046 13.046 0 0 0 11.031-6.51h3.719c-2.92 5.5-8.961 9.69-15.282 9.69-7.682 0-13.16-6.264-11.645-14.431 1.427-7.817 8.917-14.379 16.924-14.535 6.018.052 9.619 3.634 10.942 7.074a13.475 13.475 0 0 1 .5 8.724Z" />
    <path d="M627.039 231.172c-.865 5.246 2.625 5.648 3.882 5.648a5.748 5.748 0 0 0 6.026-4.942c.7-3.782-2.558-4.644-4.458-5.5-2.632-.959-6.824-2.475-5.871-7.669a9.422 9.422 0 0 1 9.257-7.669c4.111 0 6.935 3.18 6.085 7.52h-3.513c.37-3.381-1.76-4.34-3.312-4.34a5.118 5.118 0 0 0-4.932 4.132c-.54 2.928 2.189 3.938 4.074 4.592 3.024 1.055 7.312 2.824 6.255 8.523a9.87 9.87 0 0 1-10.2 8.531c-3.815 0-8.1-2.631-6.8-8.828Z" />
    <path d="M656.547 231.172c-.865 5.246 2.617 5.648 3.874 5.648a5.75 5.75 0 0 0 6.033-4.942c.695-3.782-2.558-4.644-4.458-5.5-2.625-.959-6.817-2.475-5.863-7.669a9.4 9.4 0 0 1 9.249-7.669c4.111 0 6.935 3.18 6.085 7.52h-3.512c.37-3.381-1.76-4.34-3.32-4.34a5.116 5.116 0 0 0-4.924 4.132c-.54 2.928 2.181 3.938 4.066 4.592 3.024 1.055 7.32 2.824 6.27 8.523a9.888 9.888 0 0 1-10.21 8.531c-3.815 0-8.1-2.631-6.8-8.828Z" />
    <path d="M710.511 228.898c-.658 4.689 1.745 7.713 6.307 7.713a9.284 9.284 0 0 0 8.85-7.409c1.057-5.752-4.443-7.216-6.817-7.973-3.179-1.011-9.19-2.415-7.822-9.839a12.559 12.559 0 0 1 12.287-10.035c6.078 0 9.427 4.7 8.428 10.143h-3.726c.7-3.782-1.811-6.762-5.331-6.762a8.145 8.145 0 0 0-7.919 6.51c-.835 4.54 2.935 5.6 7.541 7.007 8.68 2.475 7.3 9.69 7.09 10.8a13.806 13.806 0 0 1-13.2 10.953c-4.828 0-10.772-2.876-9.4-11.1Z" />
    <path d="M770.761 231.216c-2.381 3.433-7.039 8.784-15.26 8.784-8.584 0-13.53-6.718-12.1-14.431a18.423 18.423 0 0 1 17.423-14.528c4.821 0 10.543 2.43 11.985 9.029h-3.852a8.7 8.7 0 0 0-8.613-5.856 14.058 14.058 0 0 0-13.419 11.251c-1.139 6.2 2.676 11.362 9.257 11.362a13.077 13.077 0 0 0 10.713-5.61Z" />
    <path d="M791.3 202.005h3.519l-2.447 13.272h.1a12.081 12.081 0 0 1 9.22-4.243c3.364 0 6.018.862 8.059 3.389 1.686 2.021 2.455 5.194 1.619 9.735l-2.8 15.182h-3.512l2.795-15.182c.665-3.589.022-6.108-1.213-7.572a7.338 7.338 0 0 0-5.53-2.371 10.377 10.377 0 0 0-6.41 2.371 12.23 12.23 0 0 0-3.956 7.572l-2.8 15.182h-3.512Z" />
    <path d="M838.884 236.82c5.323 0 11.623-4.243 12.961-11.451 1.331-7.26-4.074-11.154-8.791-11.154-5.02 0-11.6 4.132-12.946 11.451-1.19 6.406 3.105 11.154 8.776 11.154m4.7-25.786c8.133 0 13.138 6.911 11.741 14.476-1.38 7.525-8.829 14.49-17.069 14.49-8.029 0-13.05-6.814-11.674-14.275 1.6-8.731 9.782-14.691 17.005-14.691" />
    <path d="M881.788 236.82c5.323 0 11.63-4.243 12.96-11.451 1.331-7.26-4.074-11.154-8.783-11.154-5.035 0-11.615 4.132-12.961 11.451-1.175 6.406 3.12 11.154 8.784 11.154m4.717-25.785c8.118 0 13.124 6.911 11.726 14.476-1.383 7.528-8.843 14.491-17.064 14.491-8.036 0-13.057-6.814-11.681-14.275 1.6-8.731 9.782-14.691 17.02-14.691" />
    <path d="M917.919 202.007h3.51l-6.876 37.334h-3.512Z" />
  </g>
</svg>